<?xml version="1.0" standalone="no"?><!DOCTYPE svg PUBLIC "-//W3C//DTD SVG 1.1//EN" "http://www.w3.org/Graphics/SVG/1.1/DTD/svg11.dtd"><svg t="1610698831503" class="icon" viewBox="0 0 1024 1024" version="1.1" xmlns="http://www.w3.org/2000/svg" p-id="661" xmlns:xlink="http://www.w3.org/1999/xlink" width="128" height="128"><defs><style type="text/css"></style></defs><path d="M672 512c123.712 0 224 100.288 224 224S795.712 960 672 960 448 859.712 448 736s100.288-224 224-224z m96-449c35.346 0 64 28.654 64 64v384h-64V129H192v704h256v62H192c-35.346 0-64-28.654-64-64V127c0-35.346 28.654-64 64-64h576z m-96 512c-88.366 0-160 71.634-160 160s71.634 160 160 160 160-71.634 160-160-71.634-160-160-160z m32 129v128h-64V704h64z m-32-96c17.673 0 32 14.327 32 32 0 17.673-14.327 32-32 32-17.673 0-32-14.327-32-32 0-17.673 14.327-32 32-32zM512 447v64H256v-64h256z m192-192v64H256v-64h448z" p-id="662"></path></svg>